<svg width="423" height="204" viewBox="0 0 423 204" fill="none" xmlns="http://www.w3.org/2000/svg">
<path d="M111.28 122.292L111.551 142.131L102.06 137.743C100.402 136.976 99.2935 135.367 99.1692 133.545L99.0503 131.804L99.0731 122.292C98.2581 121.858 96.9152 120.928 95.8771 119.69C94.7978 118.403 95.9819 116.857 97.6612 116.857H99.0731L99.6166 92.3985C98.2527 92.0197 95.5576 91.0957 94.0765 90.0402C93.574 89.682 93.3582 89.0743 93.3631 88.4572C93.3702 87.5676 93.4064 86.2092 93.5455 85.0691C93.6705 84.0449 94.5602 83.3982 95.5908 83.3496C99.1736 83.1806 104.372 83.16 104.757 83.1587H104.78H105.573C105.582 83.1588 109.731 83.2114 113.347 83.3164C115.245 83.3715 116.819 84.5837 116.928 86.479C116.952 86.8861 116.967 87.2872 116.976 87.6558C117.005 88.7907 116.585 89.9051 115.6 90.4689C114.076 91.3405 111.912 92.072 110.736 92.3985L111.28 116.857C113.698 116.857 115.286 119.08 113.494 120.704C112.688 121.435 111.853 121.986 111.28 122.292Z" fill="#4E8D8D"/>
<path d="M118.889 73.9188C119.045 75.0114 118.37 76.6363 117.709 77.8682C117.29 78.6487 116.459 79.0948 115.574 79.1159L105.573 79.354H104.78H104.757L94.7788 79.1159C93.8933 79.0948 93.063 78.6487 92.6441 77.8682C91.9827 76.6363 91.3077 75.0114 91.4638 73.9188C91.6035 72.9411 92.1245 71.8362 92.6234 70.979C93.0536 70.2397 93.8695 69.8424 94.7249 69.8424H99.6166V57.0697L96.7707 55.6467C95.85 55.1864 95.2684 54.2454 95.2684 53.216V52.854C95.2684 51.4086 96.3998 50.2161 97.8432 50.1402L100.432 50.0039L100.704 40.2205L97.0916 38.7332C96.4817 38.4821 96.0837 37.8878 96.0837 37.2282C96.0837 36.3293 96.8124 35.6006 97.7113 35.6006H100.975L104.998 0.269067C105.016 0.115779 105.146 0 105.3 0C105.455 0 105.585 0.116951 105.602 0.271153L109.377 35.6006H112.641C113.54 35.6006 114.269 36.3293 114.269 37.2282C114.269 37.8878 113.871 38.4821 113.261 38.7332L109.649 40.2205L109.921 50.0039L112.509 50.1402C113.953 50.2161 115.084 51.4086 115.084 52.854V53.216C115.084 54.2454 114.503 55.1864 113.582 55.6467L110.736 57.0697V69.8424H115.628C116.483 69.8424 117.299 70.2397 117.729 70.979C118.228 71.8362 118.749 72.9411 118.889 73.9188Z" fill="#4E8D8D"/>
<path d="M57.9124 113.174C51.0351 118.173 6.86223 165.372 1.03536 172.501C0.578587 173.06 0.174677 173.706 0.0458109 174.416C-0.0810205 175.115 0.0612743 175.731 0.401227 176.373C0.898311 177.31 1.61788 177.545 2.57531 178.003C3.53274 178.461 6.24193 178.328 8.55404 178.003C10.8661 177.678 19.0154 170.292 25.4032 164.959C31.791 159.625 36.1992 155.561 42.7959 149.196C48.5064 143.687 62.3172 127.612 66.7492 123.343C67.5624 122.56 68.5707 121.827 69.6999 121.827C70.8294 121.827 71.8433 122.563 72.6761 123.326C77.5184 127.763 93.3814 145.093 96.8762 147.838C100.883 150.985 102.468 152.678 107.475 155.447C112.481 158.216 116.922 158.512 122.693 161.154C128.465 163.796 160.954 191.8 164.816 194.037C168.679 196.274 173.085 199.219 174.871 199.472C174.871 199.472 177.504 199.884 178.824 199.709C179.298 199.647 179.64 199.251 179.635 198.774C179.628 198.083 179.285 197.301 179.012 196.784C178.805 196.394 178.518 196.074 178.185 195.785C161.608 181.381 128.129 151.099 128.129 151.099C125.955 149.142 117.349 144.667 112.638 142.674C107.928 140.681 104.329 136.446 99.322 132.076C94.315 127.705 85.4622 119.031 81.3858 114.139C77.853 110.878 75.9506 109.248 69.4284 109.248C64.3725 109.248 60.6229 111.371 59.1926 112.325C58.7609 112.613 58.3323 112.869 57.9124 113.174Z" fill="#50BFBF"/>
<path d="M102.311 167.676C98.5878 164.13 92.462 153.519 91.7128 157.349C91.269 159.618 91.351 161.011 91.4915 161.769C91.5855 162.276 91.7543 162.774 91.9019 163.268C92.3518 164.775 93.0717 165.622 93.8869 167.676C94.8284 170.049 95.9375 172.207 97.4197 174.47C98.902 176.733 101.224 179.362 101.224 179.362C101.224 179.362 105.567 183.274 107.747 184.797C109.926 186.32 110.081 186.6 112.095 187.515C114.096 188.423 114.425 188.483 118.006 189.133L118.074 189.145C120.711 189.624 124.653 189.244 127.765 189.323C129.571 189.369 132.144 189.596 133.836 190.232C136.575 191.264 140.756 193.464 144.706 194.852C148.656 196.241 150.8 197.768 153.946 198.113C153.946 198.113 155.573 198.268 157.751 197.842C160.982 197.209 150.778 192.702 147.152 190.232C143.526 187.763 142.212 186.74 139.271 185.069C136.33 183.398 135.013 181.808 132.205 181.536C129.397 181.264 123.726 180.721 123.509 180.721C123.291 180.721 119.251 179.996 117.258 179.634C115.265 179.271 113.757 177.787 110.736 175.557C107.716 173.327 106.035 171.222 102.311 167.676Z" fill="#50BFBF"/>
<path d="M15.8917 188.874C12.1106 190.358 9.57148 190.283 6.10828 192.406C5.87 192.552 5.5883 192.737 5.32666 192.912C4.76253 193.29 4.18898 193.79 4.19829 194.469C4.20901 195.251 4.727 196.018 5.293 196.755C5.8287 197.451 6.44766 197.67 7.14591 197.916C7.90823 198.185 8.70461 198.385 9.51293 198.385H99.0779C100.152 198.385 100.554 196.963 99.5939 196.483C96.5019 194.937 94.3035 195.224 91.1693 193.765C77.2552 188.33 72.6896 175.738 72.1461 170.122C70.927 159.418 72.8979 152.818 71.6026 142.131C71.3919 140.393 71.3896 139.299 70.5155 137.783C67.8126 133.093 65.6138 145.325 62.9062 150.012C58.5581 159.07 43.0677 179.525 15.8917 188.874Z" fill="#50BFBF"/>
<path d="M179.055 144V71.296H150.383V54.4H228.463V71.296H199.791V144H179.055ZM281.25 145.536C274.338 145.536 267.895 144.427 261.922 142.208C256.034 139.904 250.914 136.661 246.562 132.48C242.21 128.299 238.797 123.392 236.322 117.76C233.933 112.128 232.738 105.941 232.738 99.2C232.738 92.4587 233.933 86.272 236.322 80.64C238.797 75.008 242.21 70.1013 246.562 65.92C250.999 61.7387 256.162 58.5387 262.05 56.32C267.938 54.016 274.381 52.864 281.378 52.864C289.143 52.864 296.141 54.2293 302.37 56.96C308.685 59.6053 313.975 63.5307 318.242 68.736L304.93 81.024C301.858 77.5253 298.445 74.9227 294.69 73.216C290.935 71.424 286.839 70.528 282.402 70.528C278.221 70.528 274.381 71.2107 270.882 72.576C267.383 73.9413 264.354 75.904 261.794 78.464C259.234 81.024 257.229 84.0533 255.778 87.552C254.413 91.0507 253.73 94.9333 253.73 99.2C253.73 103.467 254.413 107.349 255.778 110.848C257.229 114.347 259.234 117.376 261.794 119.936C264.354 122.496 267.383 124.459 270.882 125.824C274.381 127.189 278.221 127.872 282.402 127.872C286.839 127.872 290.935 127.019 294.69 125.312C298.445 123.52 301.858 120.832 304.93 117.248L318.242 129.536C313.975 134.741 308.685 138.709 302.37 141.44C296.141 144.171 289.101 145.536 281.25 145.536ZM318.844 144L358.78 54.4H379.26L419.324 144H397.564L364.796 64.896H372.988L340.092 144H318.844ZM338.812 124.8L344.316 109.056H390.396L396.028 124.8H338.812Z" fill="#50BFBF"/>
<path d="M170.039 171V158.504H165.111V155.6H178.531V158.504H173.603V171H170.039ZM181.549 171V155.6H188.215C189.593 155.6 190.781 155.827 191.779 156.282C192.776 156.722 193.546 157.36 194.089 158.196C194.631 159.032 194.903 160.029 194.903 161.188C194.903 162.332 194.631 163.322 194.089 164.158C193.546 164.979 192.776 165.61 191.779 166.05C190.781 166.49 189.593 166.71 188.215 166.71H183.529L185.113 165.148V171H181.549ZM191.339 171L187.489 165.412H191.295L195.189 171H191.339ZM185.113 165.544L183.529 163.872H188.017C189.117 163.872 189.938 163.637 190.481 163.168C191.023 162.684 191.295 162.024 191.295 161.188C191.295 160.337 191.023 159.677 190.481 159.208C189.938 158.739 189.117 158.504 188.017 158.504H183.529L185.113 156.81V165.544ZM196.803 171L203.667 155.6H207.187L214.073 171H210.333L204.701 157.404H206.109L200.455 171H196.803ZM200.235 167.7L201.181 164.994H209.101L210.069 167.7H200.235ZM216.77 171V155.6H220.334V171H216.77ZM225.089 171V155.6H232.085C233.757 155.6 235.231 155.923 236.507 156.568C237.783 157.199 238.78 158.086 239.499 159.23C240.218 160.374 240.577 161.731 240.577 163.3C240.577 164.855 240.218 166.211 239.499 167.37C238.78 168.514 237.783 169.409 236.507 170.054C235.231 170.685 233.757 171 232.085 171H225.089ZM228.653 168.074H231.909C232.936 168.074 233.823 167.883 234.571 167.502C235.334 167.106 235.92 166.549 236.331 165.83C236.756 165.111 236.969 164.268 236.969 163.3C236.969 162.317 236.756 161.474 236.331 160.77C235.92 160.051 235.334 159.501 234.571 159.12C233.823 158.724 232.936 158.526 231.909 158.526H228.653V168.074ZM244.365 171V155.6H247.929V171H244.365ZM252.684 171V155.6H255.632L264.718 166.688H263.288V155.6H266.808V171H263.882L254.774 159.912H256.204V171H252.684ZM278.987 171.264C277.77 171.264 276.648 171.073 275.621 170.692C274.609 170.296 273.722 169.739 272.959 169.02C272.211 168.301 271.624 167.458 271.199 166.49C270.788 165.522 270.583 164.459 270.583 163.3C270.583 162.141 270.788 161.078 271.199 160.11C271.624 159.142 272.218 158.299 272.981 157.58C273.744 156.861 274.638 156.311 275.665 155.93C276.692 155.534 277.821 155.336 279.053 155.336C280.417 155.336 281.642 155.563 282.727 156.018C283.827 156.473 284.751 157.133 285.499 157.998L283.211 160.11C282.654 159.523 282.045 159.091 281.385 158.812C280.725 158.519 280.006 158.372 279.229 158.372C278.481 158.372 277.799 158.489 277.183 158.724C276.567 158.959 276.032 159.296 275.577 159.736C275.137 160.176 274.792 160.697 274.543 161.298C274.308 161.899 274.191 162.567 274.191 163.3C274.191 164.019 274.308 164.679 274.543 165.28C274.792 165.881 275.137 166.409 275.577 166.864C276.032 167.304 276.56 167.641 277.161 167.876C277.777 168.111 278.452 168.228 279.185 168.228C279.889 168.228 280.571 168.118 281.231 167.898C281.906 167.663 282.558 167.275 283.189 166.732L285.213 169.306C284.377 169.937 283.402 170.421 282.287 170.758C281.187 171.095 280.087 171.264 278.987 171.264ZM281.957 168.844V163.058H285.213V169.306L281.957 168.844ZM304.324 171.264C303.136 171.264 302.029 171.073 301.002 170.692C299.99 170.296 299.11 169.739 298.362 169.02C297.614 168.301 297.028 167.458 296.602 166.49C296.192 165.522 295.986 164.459 295.986 163.3C295.986 162.141 296.192 161.078 296.602 160.11C297.028 159.142 297.614 158.299 298.362 157.58C299.125 156.861 300.012 156.311 301.024 155.93C302.036 155.534 303.144 155.336 304.346 155.336C305.681 155.336 306.884 155.571 307.954 156.04C309.04 156.495 309.949 157.169 310.682 158.064L308.394 160.176C307.866 159.575 307.28 159.127 306.634 158.834C305.989 158.526 305.285 158.372 304.522 158.372C303.804 158.372 303.144 158.489 302.542 158.724C301.941 158.959 301.42 159.296 300.98 159.736C300.54 160.176 300.196 160.697 299.946 161.298C299.712 161.899 299.594 162.567 299.594 163.3C299.594 164.033 299.712 164.701 299.946 165.302C300.196 165.903 300.54 166.424 300.98 166.864C301.42 167.304 301.941 167.641 302.542 167.876C303.144 168.111 303.804 168.228 304.522 168.228C305.285 168.228 305.989 168.081 306.634 167.788C307.28 167.48 307.866 167.018 308.394 166.402L310.682 168.514C309.949 169.409 309.04 170.091 307.954 170.56C306.884 171.029 305.674 171.264 304.324 171.264ZM321.347 171.264C320.129 171.264 319 171.066 317.959 170.67C316.932 170.274 316.037 169.717 315.275 168.998C314.527 168.279 313.94 167.436 313.515 166.468C313.104 165.5 312.899 164.444 312.899 163.3C312.899 162.156 313.104 161.1 313.515 160.132C313.94 159.164 314.534 158.321 315.297 157.602C316.059 156.883 316.954 156.326 317.981 155.93C319.007 155.534 320.122 155.336 321.325 155.336C322.542 155.336 323.657 155.534 324.669 155.93C325.695 156.326 326.583 156.883 327.331 157.602C328.093 158.321 328.687 159.164 329.113 160.132C329.538 161.085 329.751 162.141 329.751 163.3C329.751 164.444 329.538 165.507 329.113 166.49C328.687 167.458 328.093 168.301 327.331 169.02C326.583 169.724 325.695 170.274 324.669 170.67C323.657 171.066 322.549 171.264 321.347 171.264ZM321.325 168.228C322.014 168.228 322.645 168.111 323.217 167.876C323.803 167.641 324.317 167.304 324.757 166.864C325.197 166.424 325.534 165.903 325.769 165.302C326.018 164.701 326.143 164.033 326.143 163.3C326.143 162.567 326.018 161.899 325.769 161.298C325.534 160.697 325.197 160.176 324.757 159.736C324.331 159.296 323.825 158.959 323.239 158.724C322.652 158.489 322.014 158.372 321.325 158.372C320.635 158.372 319.997 158.489 319.411 158.724C318.839 158.959 318.333 159.296 317.893 159.736C317.453 160.176 317.108 160.697 316.859 161.298C316.624 161.899 316.507 162.567 316.507 163.3C316.507 164.019 316.624 164.686 316.859 165.302C317.108 165.903 317.445 166.424 317.871 166.864C318.311 167.304 318.824 167.641 319.411 167.876C319.997 168.111 320.635 168.228 321.325 168.228ZM333.529 171V155.6H336.477L343.033 166.468H341.471L347.917 155.6H350.843L350.887 171H347.543L347.521 160.726H348.137L342.989 169.372H341.383L336.125 160.726H336.873V171H333.529ZM355.641 171V155.6H362.307C363.686 155.6 364.874 155.827 365.871 156.282C366.868 156.722 367.638 157.36 368.181 158.196C368.724 159.032 368.995 160.029 368.995 161.188C368.995 162.332 368.724 163.322 368.181 164.158C367.638 164.994 366.868 165.639 365.871 166.094C364.874 166.534 363.686 166.754 362.307 166.754H357.621L359.205 165.148V171H355.641ZM359.205 165.544L357.621 163.85H362.109C363.209 163.85 364.03 163.615 364.573 163.146C365.116 162.677 365.387 162.024 365.387 161.188C365.387 160.337 365.116 159.677 364.573 159.208C364.03 158.739 363.209 158.504 362.109 158.504H357.621L359.205 156.81V165.544ZM369.842 171L376.706 155.6H380.226L387.112 171H383.372L377.74 157.404H379.148L373.494 171H369.842ZM373.274 167.7L374.22 164.994H382.14L383.108 167.7H373.274ZM389.81 171V155.6H392.758L401.844 166.688H400.414V155.6H403.934V171H401.008L391.9 159.912H393.33V171H389.81ZM412.505 171V164.708L413.319 166.864L406.543 155.6H410.327L415.519 164.246H413.341L418.555 155.6H422.053L415.277 166.864L416.069 164.708V171H412.505ZM242.738 198L249.602 182.6H253.122L260.008 198H256.268L250.636 184.404H252.044L246.39 198H242.738ZM246.17 194.7L247.116 191.994H255.036L256.004 194.7H246.17ZM262.706 198V182.6H266.27V195.096H273.992V198H262.706ZM277.083 198V182.6H280.031L286.587 193.468H285.025L291.471 182.6H294.397L294.441 198H291.097L291.075 187.726H291.691L286.543 196.372H284.937L279.679 187.726H280.427V198H277.083ZM297.171 198L304.035 182.6H307.555L314.441 198H310.701L305.069 184.404H306.477L300.823 198H297.171ZM300.603 194.7L301.549 191.994H309.469L310.437 194.7H300.603ZM319.555 198V185.504H314.627V182.6H328.047V185.504H323.119V198H319.555ZM334.592 198V191.708L335.406 193.864L328.63 182.6H332.414L337.606 191.246H335.428L340.642 182.6H344.14L337.364 193.864L338.156 191.708V198H334.592Z" fill="#4E8D8D"/>
</svg>
